<mxfile host="app.diagrams.net" modified="2021-04-08T16:15:56.682Z" agent="5.0 (Windows NT 10.0; Win64; x64) AppleWebKit/537.36 (KHTML, like Gecko) Chrome/89.0.4389.114 Safari/537.36" etag="eWaXwmayowuu9qFdymgi" version="14.5.8" type="github">
  <diagram id="Jb4tWgrzJc02DxzkDzMU" name="Page-1">
    <mxGraphModel dx="938" dy="575" grid="1" gridSize="10" guides="1" tooltips="1" connect="1" arrows="1" fold="1" page="1" pageScale="1" pageWidth="850" pageHeight="1100" math="0" shadow="0">
      <root>
        <mxCell id="0" />
        <mxCell id="1" parent="0" />
        <mxCell id="fjoyJNUoLHEGhLqI_5-S-1" value="" style="rounded=0;whiteSpace=wrap;html=1;fillColor=#fff2cc;strokeColor=none;" vertex="1" parent="1">
          <mxGeometry x="300" y="180" width="120" height="80" as="geometry" />
        </mxCell>
        <mxCell id="fjoyJNUoLHEGhLqI_5-S-2" value="" style="ellipse;whiteSpace=wrap;html=1;aspect=fixed;fillColor=#a20025;fontColor=#ffffff;strokeColor=none;" vertex="1" parent="1">
          <mxGeometry x="310" y="200" width="20" height="20" as="geometry" />
        </mxCell>
        <mxCell id="fjoyJNUoLHEGhLqI_5-S-3" value="" style="ellipse;whiteSpace=wrap;html=1;aspect=fixed;fillColor=#a20025;fontColor=#ffffff;strokeColor=none;" vertex="1" parent="1">
          <mxGeometry x="390" y="220" width="20" height="20" as="geometry" />
        </mxCell>
        <mxCell id="fjoyJNUoLHEGhLqI_5-S-4" value="" style="ellipse;whiteSpace=wrap;html=1;aspect=fixed;fillColor=#a20025;fontColor=#ffffff;strokeColor=none;" vertex="1" parent="1">
          <mxGeometry x="340" y="240" width="20" height="20" as="geometry" />
        </mxCell>
        <mxCell id="fjoyJNUoLHEGhLqI_5-S-6" value="" style="ellipse;whiteSpace=wrap;html=1;aspect=fixed;fillColor=#a20025;fontColor=#ffffff;strokeColor=none;" vertex="1" parent="1">
          <mxGeometry x="350" y="190" width="20" height="20" as="geometry" />
        </mxCell>
        <mxCell id="fjoyJNUoLHEGhLqI_5-S-7" value="" style="endArrow=none;html=1;exitX=1;exitY=0.5;exitDx=0;exitDy=0;entryX=0;entryY=0.5;entryDx=0;entryDy=0;" edge="1" parent="1" source="fjoyJNUoLHEGhLqI_5-S-2" target="fjoyJNUoLHEGhLqI_5-S-6">
          <mxGeometry width="50" height="50" relative="1" as="geometry">
            <mxPoint x="410" y="560" as="sourcePoint" />
            <mxPoint x="460" y="510" as="targetPoint" />
          </mxGeometry>
        </mxCell>
        <mxCell id="fjoyJNUoLHEGhLqI_5-S-8" value="" style="endArrow=none;html=1;exitX=1;exitY=0.5;exitDx=0;exitDy=0;entryX=0.5;entryY=0;entryDx=0;entryDy=0;" edge="1" parent="1" source="fjoyJNUoLHEGhLqI_5-S-6" target="fjoyJNUoLHEGhLqI_5-S-3">
          <mxGeometry width="50" height="50" relative="1" as="geometry">
            <mxPoint x="390" y="430" as="sourcePoint" />
            <mxPoint x="440" y="380" as="targetPoint" />
          </mxGeometry>
        </mxCell>
        <mxCell id="fjoyJNUoLHEGhLqI_5-S-9" value="" style="endArrow=none;html=1;exitX=0.5;exitY=1;exitDx=0;exitDy=0;entryX=0;entryY=0.5;entryDx=0;entryDy=0;" edge="1" parent="1" source="fjoyJNUoLHEGhLqI_5-S-2" target="fjoyJNUoLHEGhLqI_5-S-4">
          <mxGeometry width="50" height="50" relative="1" as="geometry">
            <mxPoint x="390" y="430" as="sourcePoint" />
            <mxPoint x="440" y="380" as="targetPoint" />
          </mxGeometry>
        </mxCell>
        <mxCell id="fjoyJNUoLHEGhLqI_5-S-10" value="" style="endArrow=none;html=1;exitX=0.5;exitY=1;exitDx=0;exitDy=0;entryX=0.5;entryY=0;entryDx=0;entryDy=0;" edge="1" parent="1" source="fjoyJNUoLHEGhLqI_5-S-6" target="fjoyJNUoLHEGhLqI_5-S-4">
          <mxGeometry width="50" height="50" relative="1" as="geometry">
            <mxPoint x="390" y="430" as="sourcePoint" />
            <mxPoint x="440" y="380" as="targetPoint" />
          </mxGeometry>
        </mxCell>
        <mxCell id="fjoyJNUoLHEGhLqI_5-S-11" value="" style="endArrow=none;html=1;exitX=1;exitY=0.5;exitDx=0;exitDy=0;entryX=0.5;entryY=1;entryDx=0;entryDy=0;" edge="1" parent="1" source="fjoyJNUoLHEGhLqI_5-S-4" target="fjoyJNUoLHEGhLqI_5-S-3">
          <mxGeometry width="50" height="50" relative="1" as="geometry">
            <mxPoint x="390" y="430" as="sourcePoint" />
            <mxPoint x="440" y="380" as="targetPoint" />
          </mxGeometry>
        </mxCell>
        <mxCell id="fjoyJNUoLHEGhLqI_5-S-13" value="" style="endArrow=none;html=1;entryX=0;entryY=0.5;entryDx=0;entryDy=0;exitX=1;exitY=1;exitDx=0;exitDy=0;" edge="1" parent="1" source="fjoyJNUoLHEGhLqI_5-S-2" target="fjoyJNUoLHEGhLqI_5-S-3">
          <mxGeometry width="50" height="50" relative="1" as="geometry">
            <mxPoint x="390" y="220" as="sourcePoint" />
            <mxPoint x="440" y="170" as="targetPoint" />
          </mxGeometry>
        </mxCell>
        <mxCell id="fjoyJNUoLHEGhLqI_5-S-14" value="&lt;font style=&quot;font-size: 10px&quot;&gt;Controller Farm&lt;/font&gt;" style="text;html=1;strokeColor=none;fillColor=none;align=center;verticalAlign=middle;whiteSpace=wrap;rounded=0;" vertex="1" parent="1">
          <mxGeometry x="300" y="160" width="90" height="20" as="geometry" />
        </mxCell>
        <mxCell id="fjoyJNUoLHEGhLqI_5-S-15" value="&lt;font style=&quot;font-size: 8px&quot;&gt;Falken Agent&lt;/font&gt;" style="rounded=0;whiteSpace=wrap;html=1;fillColor=#d80073;fontColor=#ffffff;strokeColor=none;" vertex="1" parent="1">
          <mxGeometry x="196" y="350" width="70" height="30" as="geometry" />
        </mxCell>
        <mxCell id="fjoyJNUoLHEGhLqI_5-S-17" value="&lt;font style=&quot;font-size: 8px&quot;&gt;service-A&lt;/font&gt;" style="rounded=0;whiteSpace=wrap;html=1;fillColor=#e1d5e7;strokeColor=none;" vertex="1" parent="1">
          <mxGeometry x="196" y="400" width="70" height="30" as="geometry" />
        </mxCell>
        <mxCell id="fjoyJNUoLHEGhLqI_5-S-18" value="" style="rounded=0;whiteSpace=wrap;html=1;fillColor=#d80073;fontColor=#ffffff;strokeColor=none;" vertex="1" parent="1">
          <mxGeometry x="246" y="400" width="20" height="10" as="geometry" />
        </mxCell>
        <mxCell id="fjoyJNUoLHEGhLqI_5-S-19" value="" style="endArrow=none;html=1;exitX=0.75;exitY=0;exitDx=0;exitDy=0;entryX=0.5;entryY=1;entryDx=0;entryDy=0;" edge="1" parent="1" source="fjoyJNUoLHEGhLqI_5-S-17" target="fjoyJNUoLHEGhLqI_5-S-15">
          <mxGeometry width="50" height="50" relative="1" as="geometry">
            <mxPoint x="416" y="350" as="sourcePoint" />
            <mxPoint x="466" y="300" as="targetPoint" />
          </mxGeometry>
        </mxCell>
        <mxCell id="fjoyJNUoLHEGhLqI_5-S-20" value="&lt;font style=&quot;font-size: 8px&quot;&gt;Falken Agent&lt;/font&gt;" style="rounded=0;whiteSpace=wrap;html=1;fillColor=#d80073;fontColor=#ffffff;strokeColor=none;" vertex="1" parent="1">
          <mxGeometry x="326" y="350" width="70" height="30" as="geometry" />
        </mxCell>
        <mxCell id="fjoyJNUoLHEGhLqI_5-S-21" value="&lt;font style=&quot;font-size: 8px&quot;&gt;service-A&lt;/font&gt;" style="rounded=0;whiteSpace=wrap;html=1;fillColor=#e1d5e7;strokeColor=none;" vertex="1" parent="1">
          <mxGeometry x="326" y="400" width="70" height="30" as="geometry" />
        </mxCell>
        <mxCell id="fjoyJNUoLHEGhLqI_5-S-22" value="" style="rounded=0;whiteSpace=wrap;html=1;fillColor=#d80073;fontColor=#ffffff;strokeColor=none;" vertex="1" parent="1">
          <mxGeometry x="376" y="400" width="20" height="10" as="geometry" />
        </mxCell>
        <mxCell id="fjoyJNUoLHEGhLqI_5-S-23" value="" style="endArrow=none;html=1;exitX=0.75;exitY=0;exitDx=0;exitDy=0;entryX=0.5;entryY=1;entryDx=0;entryDy=0;" edge="1" source="fjoyJNUoLHEGhLqI_5-S-21" target="fjoyJNUoLHEGhLqI_5-S-20" parent="1">
          <mxGeometry width="50" height="50" relative="1" as="geometry">
            <mxPoint x="546" y="350" as="sourcePoint" />
            <mxPoint x="596" y="300" as="targetPoint" />
          </mxGeometry>
        </mxCell>
        <mxCell id="fjoyJNUoLHEGhLqI_5-S-24" value="&lt;font style=&quot;font-size: 8px&quot;&gt;Falken Agent&lt;/font&gt;" style="rounded=0;whiteSpace=wrap;html=1;fillColor=#d80073;fontColor=#ffffff;strokeColor=none;" vertex="1" parent="1">
          <mxGeometry x="446" y="350" width="70" height="30" as="geometry" />
        </mxCell>
        <mxCell id="fjoyJNUoLHEGhLqI_5-S-25" value="&lt;font style=&quot;font-size: 8px&quot;&gt;service-A&lt;/font&gt;" style="rounded=0;whiteSpace=wrap;html=1;fillColor=#e1d5e7;strokeColor=none;" vertex="1" parent="1">
          <mxGeometry x="446" y="400" width="70" height="30" as="geometry" />
        </mxCell>
        <mxCell id="fjoyJNUoLHEGhLqI_5-S-26" value="" style="rounded=0;whiteSpace=wrap;html=1;fillColor=#d80073;fontColor=#ffffff;strokeColor=none;" vertex="1" parent="1">
          <mxGeometry x="496" y="400" width="20" height="10" as="geometry" />
        </mxCell>
        <mxCell id="fjoyJNUoLHEGhLqI_5-S-27" value="" style="endArrow=none;html=1;exitX=0.75;exitY=0;exitDx=0;exitDy=0;entryX=0.5;entryY=1;entryDx=0;entryDy=0;" edge="1" source="fjoyJNUoLHEGhLqI_5-S-25" target="fjoyJNUoLHEGhLqI_5-S-24" parent="1">
          <mxGeometry width="50" height="50" relative="1" as="geometry">
            <mxPoint x="666" y="350" as="sourcePoint" />
            <mxPoint x="716" y="300" as="targetPoint" />
          </mxGeometry>
        </mxCell>
        <mxCell id="fjoyJNUoLHEGhLqI_5-S-29" value="&lt;font style=&quot;font-size: 8px&quot;&gt;service-A = 90 API/minute&lt;/font&gt;" style="html=1;aspect=fixed;strokeColor=none;shadow=0;align=center;verticalAlign=top;fillColor=#3B8DF1;shape=mxgraph.gcp2.speed" vertex="1" parent="1">
          <mxGeometry x="450" y="180" width="40" height="22.8" as="geometry" />
        </mxCell>
        <mxCell id="fjoyJNUoLHEGhLqI_5-S-31" value="&lt;font style=&quot;font-size: 8px&quot;&gt;service-A = 30 API/minute&lt;/font&gt;" style="html=1;aspect=fixed;strokeColor=none;shadow=0;align=center;verticalAlign=top;fillColor=#3B8DF1;shape=mxgraph.gcp2.speed" vertex="1" parent="1">
          <mxGeometry x="176" y="440" width="40" height="22.8" as="geometry" />
        </mxCell>
        <mxCell id="fjoyJNUoLHEGhLqI_5-S-32" value="&lt;font style=&quot;font-size: 8px&quot;&gt;service-A = 30 API/minute&lt;/font&gt;" style="html=1;aspect=fixed;strokeColor=none;shadow=0;align=center;verticalAlign=top;fillColor=#3B8DF1;shape=mxgraph.gcp2.speed" vertex="1" parent="1">
          <mxGeometry x="306" y="440" width="40" height="22.8" as="geometry" />
        </mxCell>
        <mxCell id="fjoyJNUoLHEGhLqI_5-S-33" value="&lt;font style=&quot;font-size: 8px&quot;&gt;service-A = 30 API/minute&lt;/font&gt;" style="html=1;aspect=fixed;strokeColor=none;shadow=0;align=center;verticalAlign=top;fillColor=#3B8DF1;shape=mxgraph.gcp2.speed" vertex="1" parent="1">
          <mxGeometry x="426" y="440" width="40" height="22.8" as="geometry" />
        </mxCell>
        <mxCell id="fjoyJNUoLHEGhLqI_5-S-34" value="" style="endArrow=none;html=1;entryX=0.5;entryY=1;entryDx=0;entryDy=0;exitX=0.5;exitY=0;exitDx=0;exitDy=0;" edge="1" parent="1" source="fjoyJNUoLHEGhLqI_5-S-15" target="fjoyJNUoLHEGhLqI_5-S-1">
          <mxGeometry width="50" height="50" relative="1" as="geometry">
            <mxPoint x="380" y="370" as="sourcePoint" />
            <mxPoint x="430" y="320" as="targetPoint" />
          </mxGeometry>
        </mxCell>
        <mxCell id="fjoyJNUoLHEGhLqI_5-S-35" value="" style="endArrow=none;html=1;entryX=0.5;entryY=1;entryDx=0;entryDy=0;exitX=0.5;exitY=0;exitDx=0;exitDy=0;" edge="1" parent="1" source="fjoyJNUoLHEGhLqI_5-S-20" target="fjoyJNUoLHEGhLqI_5-S-1">
          <mxGeometry width="50" height="50" relative="1" as="geometry">
            <mxPoint x="215" y="360" as="sourcePoint" />
            <mxPoint x="370" y="270" as="targetPoint" />
          </mxGeometry>
        </mxCell>
        <mxCell id="fjoyJNUoLHEGhLqI_5-S-36" value="" style="endArrow=none;html=1;exitX=0.5;exitY=0;exitDx=0;exitDy=0;" edge="1" parent="1" source="fjoyJNUoLHEGhLqI_5-S-24">
          <mxGeometry width="50" height="50" relative="1" as="geometry">
            <mxPoint x="225" y="370" as="sourcePoint" />
            <mxPoint x="360" y="260" as="targetPoint" />
          </mxGeometry>
        </mxCell>
      </root>
    </mxGraphModel>
  </diagram>
</mxfile>
